<?xml version="1.0" encoding="UTF-8"?><svg xmlns="http://www.w3.org/2000/svg" viewBox="0 0 128 128" style=""><defs><path fill="none" stroke-width="5" stroke-linecap="round" transform-origin="0 0" transform="translate(38.4 , 64) rotate(45)" d=" M 0 0 t -4 -4 t -8 4 a 8 8 0 0 0 0 8 l 8 8 a 8 8 -45 0 1 0 8 t -4 4 t -8 -8" id="s"></path></defs><use stroke="purple" x="0" y="0" href="#s"></use><use transform="translate(1,1)" stroke="violet" x="0" y="0" href="#s"></use><use transform="translate(2,2)" stroke="#F8CDF8" x="0" y="0" href="#s"></use><g transform-origin="0 0" transform="translate(64 , 85) rotate(45)"><rect fill="green" shape-rendering="crispedges" x="-21" y="-21" width="42" height="42"></rect><rect fill="blue" shape-rendering="crispedges" x="-16" y="-16" width="31" height="31"></rect><rect fill="green" shape-rendering="crispedges" x="-21" y="-21" width="28" height="28"></rect><rect fill="white" shape-rendering="crispedges" x="-21" y="-21" width="21" height="21"></rect></g><text font-size="64" text-anchor="middle" fill="gray" stroke="black" x="64" y="64">P</text><defs><pattern viewBox="0 0 1 1" width="12%" height="12%" id="stripes"><line stroke="red" x1="0" y1="0" x2="1" y2="0"></line></pattern><linearGradient id="grad"><stop offset="10%" stop-color="white"></stop><stop offset="80%" stop-color="black"></stop></linearGradient><mask id="g"><circle fill="url(#grad)" cx="107" cy="64" r="21"></circle></mask></defs><circle fill="url(#stripes)" cx="107" cy="64" r="21"></circle><text stroke="black" font-size="48" text-anchor="middle" x="123" y="89.6" rotate="-45">G</text><text fill="orange" font-size="48" text-anchor="middle" x="123" y="89.6" rotate="-45">G</text><text fill="yellow" font-size="48" text-anchor="middle" mask="url(#g)" x="123" y="89.6" rotate="-45">G</text></svg>